<svg width="390" height="844" viewBox="0 0 390 844" fill="none" xmlns="http://www.w3.org/2000/svg">
<rect width="390" height="844" fill="url(#paint0_linear_14_222)"/>
<path d="M313.694 384.947C313.694 451.512 259.881 505.394 193.597 505.394C127.313 505.394 73.5 451.512 73.5 384.947C73.5 318.382 127.313 264.5 193.597 264.5C259.881 264.5 313.694 318.382 313.694 384.947Z" stroke="#242730" stroke-width="37"/>
<rect width="122.282" height="39.6491" rx="19.8246" transform="matrix(0.706215 0.707998 -0.706215 0.707998 248.643 411.353)" fill="#242730"/>
<path d="M89.2003 586.182H93.0185L95.2798 589.114L96.8935 591.023L100.768 596H96.6776L94.0412 592.659L92.9162 591.068L89.2003 586.182ZM101.325 582.364C101.325 584.871 100.856 587.019 99.9162 588.807C98.9844 590.587 97.7116 591.951 96.098 592.898C94.492 593.845 92.67 594.318 90.6321 594.318C88.5942 594.318 86.7685 593.845 85.1548 592.898C83.5488 591.943 82.276 590.576 81.3366 588.795C80.4048 587.008 79.9389 584.864 79.9389 582.364C79.9389 579.856 80.4048 577.712 81.3366 575.932C82.276 574.144 83.5488 572.777 85.1548 571.83C86.7685 570.883 88.5942 570.409 90.6321 570.409C92.67 570.409 94.492 570.883 96.098 571.83C97.7116 572.777 98.9844 574.144 99.9162 575.932C100.856 577.712 101.325 579.856 101.325 582.364ZM97.0866 582.364C97.0866 580.598 96.8101 579.11 96.2571 577.898C95.7116 576.678 94.9541 575.758 93.9844 575.136C93.0147 574.508 91.8973 574.193 90.6321 574.193C89.367 574.193 88.2495 574.508 87.2798 575.136C86.3101 575.758 85.5488 576.678 84.9957 577.898C84.4503 579.11 84.1776 580.598 84.1776 582.364C84.1776 584.129 84.4503 585.621 84.9957 586.841C85.5488 588.053 86.3101 588.973 87.2798 589.602C88.2495 590.223 89.367 590.534 90.6321 590.534C91.8973 590.534 93.0147 590.223 93.9844 589.602C94.9541 588.973 95.7116 588.053 96.2571 586.841C96.8101 585.621 97.0866 584.129 97.0866 582.364ZM116.286 586.659V576.545H120.399V594H116.411V590.898H116.229C115.835 591.875 115.187 592.674 114.286 593.295C113.392 593.917 112.289 594.227 110.979 594.227C109.835 594.227 108.823 593.973 107.945 593.466C107.073 592.951 106.392 592.205 105.899 591.227C105.407 590.242 105.161 589.053 105.161 587.659V576.545H109.274V587.023C109.274 588.129 109.577 589.008 110.183 589.659C110.789 590.311 111.585 590.636 112.57 590.636C113.176 590.636 113.763 590.489 114.331 590.193C114.899 589.898 115.365 589.458 115.729 588.875C116.1 588.284 116.286 587.545 116.286 586.659ZM124.629 594V576.545H128.743V594H124.629ZM126.697 574.068C126.046 574.068 125.485 573.852 125.016 573.42C124.546 572.981 124.311 572.455 124.311 571.841C124.311 571.22 124.546 570.693 125.016 570.261C125.485 569.822 126.046 569.602 126.697 569.602C127.357 569.602 127.917 569.822 128.379 570.261C128.849 570.693 129.084 571.22 129.084 571.841C129.084 572.455 128.849 572.981 128.379 573.42C127.917 573.852 127.357 574.068 126.697 574.068ZM132.746 594V591.386L141.746 580.102V579.955H133.041V576.545H146.78V579.352L138.212 590.443V590.591H147.075V594H132.746ZM167.732 586.182H171.55L173.811 589.114L175.425 591.023L179.3 596H175.209L172.572 592.659L171.447 591.068L167.732 586.182ZM179.857 582.364C179.857 584.871 179.387 587.019 178.447 588.807C177.516 590.587 176.243 591.951 174.629 592.898C173.023 593.845 171.201 594.318 169.163 594.318C167.125 594.318 165.3 593.845 163.686 592.898C162.08 591.943 160.807 590.576 159.868 588.795C158.936 587.008 158.47 584.864 158.47 582.364C158.47 579.856 158.936 577.712 159.868 575.932C160.807 574.144 162.08 572.777 163.686 571.83C165.3 570.883 167.125 570.409 169.163 570.409C171.201 570.409 173.023 570.883 174.629 571.83C176.243 572.777 177.516 574.144 178.447 575.932C179.387 577.712 179.857 579.856 179.857 582.364ZM175.618 582.364C175.618 580.598 175.341 579.11 174.788 577.898C174.243 576.678 173.485 575.758 172.516 575.136C171.546 574.508 170.429 574.193 169.163 574.193C167.898 574.193 166.781 574.508 165.811 575.136C164.841 575.758 164.08 576.678 163.527 577.898C162.982 579.11 162.709 580.598 162.709 582.364C162.709 584.129 162.982 585.621 163.527 586.841C164.08 588.053 164.841 588.973 165.811 589.602C166.781 590.223 167.898 590.534 169.163 590.534C170.429 590.534 171.546 590.223 172.516 589.602C173.485 588.973 174.243 588.053 174.788 586.841C175.341 585.621 175.618 584.129 175.618 582.364ZM194.817 586.659V576.545H198.93V594H194.942V590.898H194.76C194.366 591.875 193.718 592.674 192.817 593.295C191.923 593.917 190.821 594.227 189.51 594.227C188.366 594.227 187.355 593.973 186.476 593.466C185.605 592.951 184.923 592.205 184.43 591.227C183.938 590.242 183.692 589.053 183.692 587.659V576.545H187.805V587.023C187.805 588.129 188.108 589.008 188.714 589.659C189.321 590.311 190.116 590.636 191.101 590.636C191.707 590.636 192.294 590.489 192.862 590.193C193.43 589.898 193.896 589.458 194.26 588.875C194.631 588.284 194.817 587.545 194.817 586.659ZM210.888 594.341C209.138 594.341 207.626 593.977 206.354 593.25C205.089 592.515 204.115 591.477 203.433 590.136C202.751 588.788 202.411 587.201 202.411 585.375C202.411 583.58 202.751 582.004 203.433 580.648C204.123 579.284 205.085 578.223 206.32 577.466C207.554 576.701 209.005 576.318 210.672 576.318C211.748 576.318 212.763 576.492 213.717 576.841C214.679 577.182 215.528 577.712 216.263 578.432C217.005 579.152 217.589 580.068 218.013 581.182C218.437 582.288 218.649 583.606 218.649 585.136V586.398H204.342V583.625H214.706C214.698 582.837 214.528 582.136 214.195 581.523C213.861 580.902 213.395 580.413 212.797 580.057C212.206 579.701 211.517 579.523 210.729 579.523C209.888 579.523 209.149 579.727 208.513 580.136C207.876 580.538 207.38 581.068 207.024 581.727C206.676 582.379 206.498 583.095 206.49 583.875V586.295C206.49 587.311 206.676 588.182 207.047 588.909C207.418 589.629 207.937 590.182 208.604 590.568C209.27 590.947 210.051 591.136 210.945 591.136C211.543 591.136 212.085 591.053 212.57 590.886C213.054 590.712 213.475 590.458 213.831 590.125C214.187 589.792 214.456 589.379 214.638 588.886L218.479 589.318C218.236 590.333 217.774 591.22 217.092 591.977C216.418 592.727 215.554 593.311 214.501 593.727C213.448 594.136 212.244 594.341 210.888 594.341ZM222.129 594V576.545H226.118V579.455H226.3C226.618 578.447 227.163 577.67 227.936 577.125C228.716 576.572 229.607 576.295 230.607 576.295C230.834 576.295 231.088 576.307 231.368 576.33C231.656 576.345 231.894 576.371 232.084 576.409V580.193C231.91 580.133 231.633 580.08 231.254 580.034C230.883 579.981 230.523 579.955 230.175 579.955C229.425 579.955 228.75 580.117 228.152 580.443C227.561 580.761 227.095 581.205 226.754 581.773C226.413 582.341 226.243 582.996 226.243 583.739V594H222.129ZM242.936 594V570.727H251.845C253.527 570.727 254.925 570.992 256.038 571.523C257.16 572.045 257.997 572.761 258.55 573.67C259.11 574.58 259.391 575.61 259.391 576.761C259.391 577.708 259.209 578.519 258.845 579.193C258.482 579.86 257.993 580.402 257.379 580.818C256.766 581.235 256.08 581.534 255.322 581.716V581.943C256.148 581.989 256.94 582.242 257.697 582.705C258.463 583.159 259.088 583.803 259.572 584.636C260.057 585.47 260.3 586.477 260.3 587.659C260.3 588.864 260.008 589.947 259.425 590.909C258.841 591.864 257.963 592.617 256.788 593.17C255.614 593.723 254.137 594 252.357 594H242.936ZM247.152 590.477H251.686C253.216 590.477 254.319 590.186 254.993 589.602C255.675 589.011 256.016 588.254 256.016 587.33C256.016 586.64 255.845 586.019 255.504 585.466C255.163 584.905 254.679 584.466 254.05 584.148C253.421 583.822 252.671 583.659 251.8 583.659H247.152V590.477ZM247.152 580.625H251.322C252.05 580.625 252.705 580.492 253.288 580.227C253.872 579.955 254.33 579.572 254.663 579.08C255.004 578.58 255.175 577.989 255.175 577.307C255.175 576.405 254.857 575.663 254.22 575.08C253.591 574.496 252.656 574.205 251.413 574.205H247.152V580.625ZM271.513 594.341C269.763 594.341 268.251 593.977 266.979 593.25C265.714 592.515 264.74 591.477 264.058 590.136C263.376 588.788 263.036 587.201 263.036 585.375C263.036 583.58 263.376 582.004 264.058 580.648C264.748 579.284 265.71 578.223 266.945 577.466C268.179 576.701 269.63 576.318 271.297 576.318C272.373 576.318 273.388 576.492 274.342 576.841C275.304 577.182 276.153 577.712 276.888 578.432C277.63 579.152 278.214 580.068 278.638 581.182C279.062 582.288 279.274 583.606 279.274 585.136V586.398H264.967V583.625H275.331C275.323 582.837 275.153 582.136 274.82 581.523C274.486 580.902 274.02 580.413 273.422 580.057C272.831 579.701 272.142 579.523 271.354 579.523C270.513 579.523 269.774 579.727 269.138 580.136C268.501 580.538 268.005 581.068 267.649 581.727C267.301 582.379 267.123 583.095 267.115 583.875V586.295C267.115 587.311 267.301 588.182 267.672 588.909C268.043 589.629 268.562 590.182 269.229 590.568C269.895 590.947 270.676 591.136 271.57 591.136C272.168 591.136 272.71 591.053 273.195 590.886C273.679 590.712 274.1 590.458 274.456 590.125C274.812 589.792 275.081 589.379 275.263 588.886L279.104 589.318C278.861 590.333 278.399 591.22 277.717 591.977C277.043 592.727 276.179 593.311 275.126 593.727C274.073 594.136 272.869 594.341 271.513 594.341ZM290.482 594.341C288.732 594.341 287.22 593.977 285.947 593.25C284.682 592.515 283.709 591.477 283.027 590.136C282.345 588.788 282.004 587.201 282.004 585.375C282.004 583.58 282.345 582.004 283.027 580.648C283.716 579.284 284.679 578.223 285.913 577.466C287.148 576.701 288.599 576.318 290.266 576.318C291.341 576.318 292.357 576.492 293.311 576.841C294.273 577.182 295.122 577.712 295.857 578.432C296.599 579.152 297.182 580.068 297.607 581.182C298.031 582.288 298.243 583.606 298.243 585.136V586.398H283.936V583.625H294.3C294.292 582.837 294.122 582.136 293.788 581.523C293.455 580.902 292.989 580.413 292.391 580.057C291.8 579.701 291.11 579.523 290.322 579.523C289.482 579.523 288.743 579.727 288.107 580.136C287.47 580.538 286.974 581.068 286.618 581.727C286.269 582.379 286.091 583.095 286.084 583.875V586.295C286.084 587.311 286.269 588.182 286.641 588.909C287.012 589.629 287.531 590.182 288.197 590.568C288.864 590.947 289.644 591.136 290.538 591.136C291.137 591.136 291.679 591.053 292.163 590.886C292.648 590.712 293.069 590.458 293.425 590.125C293.781 589.792 294.05 589.379 294.232 588.886L298.072 589.318C297.83 590.333 297.368 591.22 296.686 591.977C296.012 592.727 295.148 593.311 294.095 593.727C293.042 594.136 291.838 594.341 290.482 594.341ZM310.439 576.545V579.727H300.405V576.545H310.439ZM302.882 572.364H306.996V588.75C306.996 589.303 307.079 589.727 307.246 590.023C307.42 590.311 307.647 590.508 307.928 590.614C308.208 590.72 308.518 590.773 308.859 590.773C309.117 590.773 309.352 590.754 309.564 590.716C309.784 590.678 309.95 590.644 310.064 590.614L310.757 593.83C310.537 593.905 310.223 593.989 309.814 594.08C309.412 594.17 308.92 594.223 308.337 594.239C307.306 594.269 306.378 594.114 305.553 593.773C304.727 593.424 304.071 592.886 303.587 592.159C303.109 591.432 302.875 590.523 302.882 589.432V572.364Z" fill="#242730"/>
<defs>
<linearGradient id="paint0_linear_14_222" x1="325.5" y1="-2.11996e-06" x2="50.5" y2="844" gradientUnits="userSpaceOnUse">
<stop offset="0" stop-color="#74A8B9" stop-opacity="0.83"/>
<stop offset="0.3125" stop-color="#8D91B3" stop-opacity="0.845625"/>
<stop offset="1" stop-color="#B974AE" stop-opacity="0.88"/>
</linearGradient>
</defs>
</svg>
