<svg width="31" height="25" viewBox="0 0 31 25" fill="none" xmlns="http://www.w3.org/2000/svg">
<path d="M17.7939 23.3255L16.334 24.5964C15.7159 25.1345 14.7163 25.1345 14.1047 24.5964L1.32076 13.4732C0.702609 12.9351 0.702609 12.0649 1.32076 11.5325L14.1047 0.403595C14.7229 -0.134532 15.7225 -0.134532 16.334 0.403595L17.7939 1.67449C18.4187 2.21834 18.4055 3.10568 17.7676 3.63808L9.84341 10.2101H28.7432C29.6178 10.2101 30.3214 10.8226 30.3214 11.584V13.416C30.3214 14.1774 29.6178 14.7899 28.7432 14.7899H9.84341L17.7676 21.3619C18.4121 21.8943 18.4252 22.7817 17.7939 23.3255Z" fill="#242730"/>
</svg>
