<svg width="30" height="25" viewBox="0 0 30 25" fill="none" xmlns="http://www.w3.org/2000/svg">
<path d="M12.5945 1.63027L14.0544 0.39286C14.6725 -0.13109 15.6721 -0.13109 16.2837 0.39286L29.0676 11.223C29.6858 11.747 29.6858 12.5942 29.0676 13.1126L16.2837 23.9483C15.6655 24.4723 14.6659 24.4723 14.0544 23.9483L12.5945 22.7109C11.9697 22.1814 11.9829 21.3174 12.6208 20.7991L20.545 14.4002L1.64523 14.4002C0.770609 14.4002 0.0669651 13.8038 0.0669651 13.0624L0.0669651 11.2788C0.0669651 10.5374 0.770609 9.94102 1.64523 9.94102L20.545 9.94102L12.6208 3.54214C11.9763 3.02376 11.9632 2.1598 12.5945 1.63027Z" fill="#242730"/>
</svg>
