<svg width="25" height="20" viewBox="0 0 25 20" fill="none" xmlns="http://www.w3.org/2000/svg">
<path d="M2.34375 0C1.8802 0 1.42706 0.135344 1.04163 0.388916C0.656206 0.642489 0.355801 1.0029 0.178408 1.42458C0.00101551 1.84625 -0.0453986 2.31025 0.0450356 2.7579C0.13547 3.20555 0.35869 3.61674 0.68647 3.93948C1.01425 4.26221 1.43187 4.482 1.88651 4.57104C2.34115 4.66009 2.8124 4.61439 3.24067 4.43972C3.66893 4.26506 4.03497 3.96928 4.29251 3.58978C4.55004 3.21028 4.6875 2.76411 4.6875 2.30769C4.6875 1.69565 4.44057 1.10868 4.00103 0.675907C3.56149 0.243131 2.96535 0 2.34375 0ZM2.34375 7.69231C1.8802 7.69231 1.42706 7.82765 1.04163 8.08122C0.656206 8.3348 0.355801 8.69521 0.178408 9.11688C0.00101551 9.53856 -0.0453986 10.0026 0.0450356 10.4502C0.13547 10.8979 0.35869 11.309 0.68647 11.6318C1.01425 11.9545 1.43187 12.1743 1.88651 12.2634C2.34115 12.3524 2.8124 12.3067 3.24067 12.132C3.66893 11.9574 4.03497 11.6616 4.29251 11.2821C4.55004 10.9026 4.6875 10.4564 4.6875 10C4.6875 9.38796 4.44057 8.80099 4.00103 8.36821C3.56149 7.93544 2.96535 7.69231 2.34375 7.69231ZM2.34375 15.3846C1.8802 15.3846 1.42706 15.52 1.04163 15.7735C0.656206 16.0271 0.355801 16.3875 0.178408 16.8092C0.00101551 17.2309 -0.0453986 17.6949 0.0450356 18.1425C0.13547 18.5902 0.35869 19.0014 0.68647 19.3241C1.01425 19.6468 1.43187 19.8666 1.88651 19.9557C2.34115 20.0447 2.8124 19.999 3.24067 19.8243C3.66893 19.6497 4.03497 19.3539 4.29251 18.9744C4.55004 18.5949 4.6875 18.1487 4.6875 17.6923C4.6875 17.0803 4.44057 16.4933 4.00103 16.0605C3.56149 15.6277 2.96535 15.3846 2.34375 15.3846ZM24.2188 16.1538H8.59375C8.38655 16.1538 8.18784 16.2349 8.04132 16.3791C7.89481 16.5234 7.8125 16.7191 7.8125 16.9231V18.4615C7.8125 18.6656 7.89481 18.8612 8.04132 19.0055C8.18784 19.1497 8.38655 19.2308 8.59375 19.2308H24.2188C24.426 19.2308 24.6247 19.1497 24.7712 19.0055C24.9177 18.8612 25 18.6656 25 18.4615V16.9231C25 16.7191 24.9177 16.5234 24.7712 16.3791C24.6247 16.2349 24.426 16.1538 24.2188 16.1538ZM24.2188 0.769231H8.59375C8.38655 0.769231 8.18784 0.850275 8.04132 0.994533C7.89481 1.13879 7.8125 1.33445 7.8125 1.53846V3.07692C7.8125 3.28094 7.89481 3.47659 8.04132 3.62085C8.18784 3.76511 8.38655 3.84615 8.59375 3.84615H24.2188C24.426 3.84615 24.6247 3.76511 24.7712 3.62085C24.9177 3.47659 25 3.28094 25 3.07692V1.53846C25 1.33445 24.9177 1.13879 24.7712 0.994533C24.6247 0.850275 24.426 0.769231 24.2188 0.769231ZM24.2188 8.46154H8.59375C8.38655 8.46154 8.18784 8.54258 8.04132 8.68684C7.89481 8.8311 7.8125 9.02676 7.8125 9.23077V10.7692C7.8125 10.9732 7.89481 11.1689 8.04132 11.3132C8.18784 11.4574 8.38655 11.5385 8.59375 11.5385H24.2188C24.426 11.5385 24.6247 11.4574 24.7712 11.3132C24.9177 11.1689 25 10.9732 25 10.7692V9.23077C25 9.02676 24.9177 8.8311 24.7712 8.68684C24.6247 8.54258 24.426 8.46154 24.2188 8.46154Z" fill="#E1E2E3"/>
</svg>
