<svg width="45" height="60" viewBox="0 0 45 60" fill="none" xmlns="http://www.w3.org/2000/svg">
<path d="M26.2275 15.9375V0H2.93074C1.38151 0 0.135132 1.25391 0.135132 2.8125V57.1875C0.135132 58.7461 1.38151 60 2.93074 60H42.0693C43.6185 60 44.8649 58.7461 44.8649 57.1875V18.75H29.0231C27.4855 18.75 26.2275 17.4844 26.2275 15.9375ZM33.8199 41.2512H26.2275V50.6262C26.2275 51.6621 25.3934 52.5012 24.3637 52.5012H20.6363C19.6065 52.5012 18.7725 51.6621 18.7725 50.6262V41.2512H11.1801C9.51673 41.2512 8.6862 39.225 9.86734 38.0449L21.0987 26.8301C21.8733 26.0555 23.1243 26.0555 23.899 26.8301L35.1303 38.0449C36.3126 39.225 35.4833 41.2512 33.8199 41.2512ZM44.0495 12.3047L32.6457 0.820312C32.1215 0.292969 31.411 0 30.6655 0H29.955V15H44.8649V14.2852C44.8649 13.5469 44.5737 12.832 44.0495 12.3047Z" fill="#A7DFF1" fill-opacity="0.8"/>
</svg>
