<svg width="26" height="20" viewBox="0 0 26 20" fill="none" xmlns="http://www.w3.org/2000/svg">
<path d="M12.1695 5.18853L4.16732 11.9683V19.2856C4.16732 19.4751 4.24048 19.6568 4.37072 19.7908C4.50095 19.9247 4.67758 20 4.86176 20L9.72548 19.9871C9.90905 19.9861 10.0848 19.9104 10.2143 19.7766C10.3438 19.6427 10.4165 19.4615 10.4164 19.2727V14.9994C10.4164 14.81 10.4896 14.6283 10.6198 14.4943C10.7501 14.3603 10.9267 14.2851 11.1109 14.2851H13.8887C14.0728 14.2851 14.2495 14.3603 14.3797 14.4943C14.51 14.6283 14.5831 14.81 14.5831 14.9994V19.2696C14.5828 19.3636 14.6006 19.4567 14.6354 19.5436C14.6701 19.6306 14.7212 19.7096 14.7857 19.7761C14.8503 19.8427 14.9269 19.8955 15.0113 19.9316C15.0957 19.9676 15.1862 19.9862 15.2776 19.9862L20.1395 20C20.3237 20 20.5004 19.9247 20.6306 19.7908C20.7608 19.6568 20.834 19.4751 20.834 19.2856V11.9634L12.8335 5.18853C12.7395 5.11054 12.6223 5.06801 12.5015 5.06801C12.3807 5.06801 12.2635 5.11054 12.1695 5.18853ZM24.8097 9.79663L21.1812 6.71995V0.535774C21.1812 0.393678 21.1263 0.257402 21.0287 0.156925C20.931 0.0564476 20.7985 0 20.6604 0H18.2298C18.0917 0 17.9592 0.0564476 17.8615 0.156925C17.7639 0.257402 17.709 0.393678 17.709 0.535774V3.77765L13.8231 0.488894C13.4502 0.173224 12.9823 0.000631028 12.4993 0.000631028C12.0164 0.000631028 11.5485 0.173224 11.1756 0.488894L0.189019 9.79663C0.136279 9.84147 0.0926449 9.89656 0.0606102 9.95876C0.0285755 10.021 0.00876769 10.089 0.00231864 10.1591C-0.0041304 10.2292 0.00290567 10.2999 0.0230248 10.3671C0.043144 10.4344 0.0759519 10.497 0.119574 10.5512L1.22634 11.9353C1.26985 11.9897 1.32336 12.0347 1.38381 12.0678C1.44426 12.101 1.51047 12.1215 1.57864 12.1282C1.64681 12.135 1.71561 12.1279 1.7811 12.1072C1.84659 12.0866 1.90748 12.0529 1.96029 12.008L12.1695 3.35796C12.2635 3.27998 12.3807 3.23745 12.5015 3.23745C12.6223 3.23745 12.7395 3.27998 12.8335 3.35796L23.0432 12.008C23.0959 12.0529 23.1567 12.0867 23.2221 12.1074C23.2875 12.1281 23.3562 12.1353 23.4243 12.1287C23.4924 12.122 23.5586 12.1016 23.6191 12.0687C23.6795 12.0357 23.7331 11.9909 23.7767 11.9366L24.8835 10.5525C24.927 10.498 24.9597 10.4351 24.9796 10.3675C24.9995 10.3 25.0062 10.229 24.9993 10.1588C24.9925 10.0886 24.9722 10.0204 24.9396 9.95824C24.9071 9.89609 24.8629 9.84117 24.8097 9.79663Z" fill="#A7DFF1"/>
</svg>
