<svg width="25" height="19" viewBox="0 0 25 19" fill="none" xmlns="http://www.w3.org/2000/svg">
<path d="M16.25 12.6667H18.125C18.4375 12.6667 18.75 12.35 18.75 12.0333V5.38333C18.75 5.06667 18.4375 4.75 18.125 4.75H16.25C15.9375 4.75 15.625 5.06667 15.625 5.38333V12.0333C15.625 12.35 15.9375 12.6667 16.25 12.6667ZM20.9375 12.6667H22.8125C23.125 12.6667 23.4375 12.35 23.4375 12.0333V0.633334C23.4375 0.316667 23.125 0 22.8125 0H20.9375C20.625 0 20.3125 0.316667 20.3125 0.633334V12.0333C20.3125 12.35 20.625 12.6667 20.9375 12.6667ZM6.875 12.6667H8.75C9.0625 12.6667 9.375 12.35 9.375 12.0333V8.55C9.375 8.23333 9.0625 7.91667 8.75 7.91667H6.875C6.5625 7.91667 6.25 8.23333 6.25 8.55V12.0333C6.25 12.35 6.5625 12.6667 6.875 12.6667ZM11.5625 12.6667H13.4375C13.75 12.6667 14.0625 12.35 14.0625 12.0333V2.21667C14.0625 1.9 13.75 1.58333 13.4375 1.58333H11.5625C11.25 1.58333 10.9375 1.9 10.9375 2.21667V12.0333C10.9375 12.35 11.25 12.6667 11.5625 12.6667ZM24.2188 15.8333H3.125V0.791667C3.125 0.354271 2.77539 0 2.34375 0H0.78125C0.349609 0 0 0.354271 0 0.791667V17.4167C0 18.291 0.699707 19 1.5625 19H24.2188C24.6504 19 25 18.6457 25 18.2083V16.625C25 16.1876 24.6504 15.8333 24.2188 15.8333Z" fill="#E1E2E3"/>
</svg>
