<svg width="36" height="36" viewBox="0 0 36 36" fill="none" xmlns="http://www.w3.org/2000/svg">
<path d="M27.0216 23.486L11.8693 8.33374C11.1721 7.63649 10.0789 7.5988 9.42812 8.24956L8.24961 9.42807C7.59885 10.0788 7.63654 11.172 8.33379 11.8693L23.4861 27.0216C24.1833 27.7188 25.2765 27.7565 25.9273 27.1057L27.1058 25.9272C27.7565 25.2765 27.7188 24.1833 27.0216 23.486Z" fill="#8B2222"/>
<path d="M23.486 8.33374L8.33374 23.486C7.63649 24.1833 7.5988 25.2765 8.24956 25.9272L9.42807 27.1057C10.0788 27.7565 11.172 27.7188 11.8693 27.0216L27.0216 11.8693C27.7188 11.172 27.7565 10.0788 27.1057 9.42807L25.9272 8.24956C25.2765 7.5988 24.1833 7.6365 23.486 8.33374Z" fill="#8B2222"/>
</svg>
